# xmcd CD database file
#
# Track frame offsets:
#	150
#	17475
#	41837
#
# Disc length: 785 seconds
#
# Revision: 5
# Processed by: cddbd v1.5.2PL0 Copyright (c) Steve Scherf et al.
# Submitted via: CDex 1.70beta2
#
DISCID=1b030f03
DTITLE=爆風スランプ - 涙2
DYEAR=1992
DGENRE=J-Pop
TTITLE0=涙2 (LOVEヴァージョン)
TTITLE1=YOROKOBI
TTITLE2=涙2 (オリジナル・カラオケ)
EXTD=YEAR: 1992
EXTT0=
EXTT1=
EXTT2=
PLAYORDER=
